# xmcd
#
# Track frame offsets:
# 150
# 13232
# 30693
# 44874
# 55821
# 69362
# 85683
# 98384
# 114823
# 130708
# 144650
# 160774
# 174512
# 201953
# 212764
# 226302
# 244282
# 258635
# 274583
# 287443
# 306409
# 318848
# 331611
# 350920
#
# Disc length: 4755 seconds
#
#
# Revision: 0
# Processed by: cddbd v1.5.2PL0 Copyright (c) Steve Scherf et al.
# Submitted via: FreeRIP 2.942 
#
DISCID=58129118
DTITLE=Jorge and Mateus - Jorge and Mateus (ao vivo)
DYEAR=1900
DGENRE=Country
TTITLE0=Querendo te amar
TTITLE1=Castigo
TTITLE2=Fogueira
TTITLE3=E saudade
TTITLE4=Cartaz
TTITLE5=Tem nada a ver
TTITLE6=Fogueira (ao vivo)
TTITLE7=Cara metade
TTITLE8=Preciso amar de novo
TTITLE9=Querendo te amar (ao vivo)
TTITLE10=Nao preciso perdao
TTITLE11=Traz ela de volta pra mim
TTITLE12=Olha amor
TTITLE13=Amores sao coisas da vida
TTITLE14=Goias e mais
TTITLE15=Me leva pra casa
TTITLE16=Te cuida coracao
TTITLE17=Cai na real
TTITLE18=Morena proibida
TTITLE19=O campeao
TTITLE20=No mesmo olhar
TTITLE21=Alcapao
TTITLE22=Do Brasil a Argentina
TTITLE23=Pelo Amor de Deus
EXTD=
EXTT0=
EXTT1=
EXTT2=
EXTT3=
EXTT4=
EXTT5=
EXTT6=
EXTT7=
EXTT8=
EXTT9=
EXTT10=
EXTT11=
EXTT12=
EXTT13=
EXTT14=
EXTT15=
EXTT16=
EXTT17=
EXTT18=
EXTT19=
EXTT20=
EXTT21=
EXTT22=
EXTT23=
PLAYORDER=
